<svg id="Camada_1" data-name="Camada 1" xmlns="http://www.w3.org/2000/svg" viewBox="0 0 696.6 652.1"><defs><style>.cls-1,.cls-2,.cls-3{fill:none;stroke-linecap:round;}.cls-1{stroke:#0ea5e9;}.cls-1,.cls-2{stroke-miterlimit:10;stroke-width:50px;}.cls-2,.cls-3{stroke:#0ea5e9;}.cls-3{stroke-linejoin:round;stroke-width:20px;}</style></defs><path id="arco_A" data-name="arco A" class="cls-1" d="M306.3,581.7a276.9,276.9,0,0,1,55.2-166.2h2.8l-1.4-1.9a277.8,277.8,0,0,1,221.6-110c90.2,0,170.3,42.9,221.2,109.5l-1.9,2.4h3.6a276.2,276.2,0,0,1,55.2,166.2" transform="translate(-236.4 -145.4)"/><path id="Y" class="cls-2" d="M361.5,415.5c-35.7-46.8-55.2-104.8-55.2-168.2" transform="translate(-236.4 -145.4)"/><path id="Y-2" data-name="Y" class="cls-2" d="M862.6,247.4a281,281,0,0,1-55.2,168.1" transform="translate(-236.4 -145.4)"/><polyline id="Y-3" data-name="Y" class="cls-2" points="348.3 577.5 347.6 270.1 125.1 270.1 571 270.1"/><rect id="borda" class="cls-3" x="10" y="10" width="676.6" height="632.12"/></svg>
